<?xml version="1.0" encoding="UTF-8"?><svg id="Layer_1" xmlns="http://www.w3.org/2000/svg" xmlns:xlink="http://www.w3.org/1999/xlink" viewBox="0 0 452.82 301.5"><defs><style>.cls-1{fill:#ffeac8;}.cls-1,.cls-2,.cls-3,.cls-4,.cls-5,.cls-6,.cls-7,.cls-8,.cls-9{stroke-width:0px;}.cls-2{fill:url(#linear-gradient);}.cls-3{fill:#e2dfe2;}.cls-4{fill:#6e60b8;}.cls-5{fill:#fec458;}.cls-6{fill:#efecef;}.cls-7{fill:#ffb640;}.cls-8{fill:#8479c2;}.cls-9{fill:#ffe181;}</style><linearGradient id="linear-gradient" x1="0" y1="150.75" x2="374.5" y2="150.75" gradientUnits="userSpaceOnUse"><stop offset="0" stop-color="#6a47c1"/><stop offset=".16" stop-color="#604fc1"/><stop offset=".43" stop-color="#4765c1"/><stop offset=".78" stop-color="#1e88c3"/><stop offset=".99" stop-color="#00a3c4"/></linearGradient></defs><path class="cls-2" d="M0,0h72.65v22.61h-29.68v256.29h29.68v22.61H0V0Z"/><path class="cls-2" d="M452.82,301.5h-72.65v-22.61h29.68V22.61h-29.68V0h72.65v301.5Z"/><path class="cls-9" d="M176.51,49.46c-37.41,50.72-16.76,105.03,23.88,125,.8.39,1.32,1.2,1.32,2.09v25.53c.75-.31,1.58-.49,2.45-.49h61.11c.87,0,1.69.17,2.45.49v-25.53c0-.89.51-1.7,1.32-2.09,25.76-12.66,43.49-39.12,43.49-69.71,0-60.56-69.46-104.94-133.21-58.08-1.07.78-2.01,1.73-2.8,2.8Z"/><path class="cls-5" d="M222.71,183.25c0-4.79-2.54-9.22-6.68-11.61-23.39-13.52-39.07-38.41-39.07-66.89,0-39.34,30.12-71.95,68.98-76.98-3.41-.44-6.88-.67-10.41-.68-43.84-.06-79.56,34.81-79.56,77.66,0,28.48,15.69,53.37,39.07,66.89,4.14,2.39,6.68,6.83,6.68,11.61v18.83c.77-.31,1.61-.49,2.5-.49h18.5v-18.34Z"/><path class="cls-7" d="M245.37,205.38c-2.01.09-3.66-1.51-3.66-3.5v-33.51c0-3.37,1.12-6.64,3.18-9.31l5.2-6.74c1.05-1.36,1.62-3.03,1.62-4.75v-34.76c0-1.91,1.43-3.64,3.34-3.72,2.01-.09,3.66,1.51,3.66,3.5v34.96c0,3.37-1.12,6.64-3.18,9.31l-5.2,6.74c-1.05,1.36-1.62,3.03-1.62,4.75v33.31c0,1.91-1.43,3.64-3.34,3.72Z"/><path class="cls-7" d="M225.37,205.38c-2.01.09-3.66-1.51-3.66-3.5v-33.54c0-1.72-.57-3.39-1.62-4.75l-5.2-6.74c-2.06-2.67-3.18-5.94-3.18-9.31v-34.73c0-1.91,1.43-3.64,3.34-3.72,2.01-.09,3.66,1.51,3.66,3.5v34.99c0,1.72.57,3.39,1.62,4.75l5.2,6.74c2.06,2.66,3.18,5.94,3.18,9.3v33.28c0,1.91-1.43,3.64-3.34,3.72Z"/><path class="cls-1" d="M289.24,89.72c-4.03-15.02-14.38-27.58-28.41-34.45-1.85-.91-2.61-3.14-1.7-4.98.91-1.85,3.14-2.61,4.98-1.7,15.95,7.82,27.74,22.11,32.32,39.21.53,1.99-.65,4.03-2.63,4.56-1.99.53-4.03-.64-4.56-2.63Z"/><path class="cls-8" d="M219.71,256.59v2.37c0,7.29,5.04,13.83,12.21,15.14,9.46,1.74,17.79-5.6,17.79-14.78v-2.73h-30Z"/><path class="cls-4" d="M233.71,259.32v-2.73h-13v2.76c0,7.09,4.88,13.44,11.85,14.76,3.31.63,6.48.06,9.17-1.35-4.75-2.48-8.02-7.58-8.02-13.43h0Z"/><path class="cls-5" d="M258.64,120.59h-47.12c-1.74,0-3.38-1.16-3.7-2.87-.41-2.21,1.39-4.13,3.67-4.13h47.12c1.74,0,3.38,1.16,3.7,2.87.41,2.21-1.39,4.13-3.67,4.13Z"/><path class="cls-5" d="M138.95,106.59h-11.81c-1.91,0-3.64-1.43-3.72-3.34-.09-2.01,1.51-3.66,3.5-3.66h11.84c1.73,0,3.35,1.17,3.64,2.87.38,2.21-1.31,4.13-3.45,4.13Z"/><path class="cls-5" d="M143,83.03l-11.98-4.55c-1.92-.73-2.89-2.88-2.16-4.8.73-1.92,2.88-2.89,4.8-2.16l11.98,4.55c1.92.73,2.89,2.88,2.16,4.8-.73,1.92-2.88,2.89-4.8,2.16Z"/><path class="cls-5" d="M128.86,132.2c-.73-1.92.24-4.07,2.16-4.8l11.98-4.55c1.92-.73,4.07.24,4.8,2.16.73,1.92-.24,4.07-2.16,4.8l-11.98,4.55c-1.92.73-4.07-.24-4.8-2.16Z"/><path class="cls-5" d="M343.21,106.59h-11.81c-1.91,0-3.64-1.43-3.72-3.34-.09-2.01,1.51-3.66,3.5-3.66h11.84c1.73,0,3.35,1.17,3.64,2.87.38,2.21-1.31,4.13-3.45,4.13Z"/><path class="cls-5" d="M322.33,80.87c-.73-1.92.24-4.07,2.16-4.8l11.98-4.55c1.92-.73,4.07.24,4.8,2.16.73,1.92-.24,4.07-2.16,4.8l-11.98,4.55c-1.92.73-4.07-.24-4.8-2.16Z"/><path class="cls-5" d="M336.47,134.36l-11.98-4.55c-1.92-.73-2.89-2.88-2.16-4.8.73-1.92,2.88-2.89,4.8-2.16l11.98,4.55c1.92.73,2.89,2.88,2.16,4.8-.73,1.92-2.88,2.89-4.8,2.16Z"/><path class="cls-6" d="M260.25,238.59h-51.08c-3.57,0-6.46,2.89-6.46,6.46v5.08c0,3.57,2.89,6.46,6.46,6.46h51.08c3.57,0,6.46-2.89,6.46-6.46v-5.08c0-3.57-2.89-6.46-6.46-6.46Z"/><path class="cls-3" d="M260.24,247.59h-51.07c-2.92,0-5.39-1.9-6.19-4.5-.18.57-.27,1.18-.27,1.81v5.22c0,3.57,2.89,6.46,6.46,6.46h51.08c3.57,0,6.46-2.89,6.46-6.46v-5.22c0-.63-.1-1.24-.27-1.81-.8,2.6-3.27,4.5-6.19,4.5h0Z"/><path class="cls-6" d="M265.25,219.59h-61.08c-3.57,0-6.46,2.89-6.46,6.46v5.08c0,3.57,2.89,6.46,6.46,6.46h61.07c3.57,0,6.46-2.89,6.46-6.46v-5.08c0-3.57-2.89-6.46-6.46-6.46Z"/><path class="cls-3" d="M265.24,229.59h-61.06c-2.92,0-5.39-1.9-6.19-4.5-.18.57-.28,1.18-.28,1.81v5.22c0,3.57,2.89,6.46,6.46,6.46h61.07c3.57,0,6.46-2.89,6.46-6.46v-5.22c0-.63-.1-1.24-.28-1.81-.8,2.6-3.27,4.5-6.19,4.5Z"/><path class="cls-6" d="M265.24,201.59h-61.08c-3.57,0-6.46,2.89-6.46,6.46v5.08c0,3.57,2.89,6.46,6.46,6.46h61.08c3.57,0,6.46-2.89,6.46-6.46v-5.07c0-3.57-2.89-6.46-6.46-6.46Z"/><path class="cls-3" d="M265.24,210.59h-61.06c-2.92,0-5.39-1.9-6.19-4.5-.18.57-.28,1.18-.28,1.81v5.22c0,3.57,2.89,6.46,6.46,6.46h61.08c3.57,0,6.46-2.89,6.46-6.46v-5.22c0-.63-.1-1.24-.28-1.81-.8,2.6-3.27,4.5-6.19,4.5Z"/></svg>